<svg width="20" height="18" viewBox="0 0 20 18" fill="none" xmlns="http://www.w3.org/2000/svg">
<path d="M5.825 18C9.03903 18 11.65 15.3961 11.65 12.175C11.65 8.96093 9.04613 6.34998 5.825 6.34998C2.60387 6.35707 0 8.96093 0 12.175C0 15.389 2.60387 18 5.825 18Z" fill="#04E061"/>
<path d="M15.9212 17.2621C17.8652 17.2621 19.4403 15.687 19.4403 13.743C19.4403 11.799 17.8652 10.2239 15.9212 10.2239C13.9771 10.2239 12.402 11.799 12.402 13.743C12.402 15.687 13.9771 17.2621 15.9212 17.2621Z" fill="#FF4053"/>
<path d="M6.93885 5.59802C8.1379 5.59802 9.11701 4.62601 9.11701 3.41986C9.11701 2.21371 8.145 1.2417 6.93885 1.2417C5.73979 1.2417 4.76068 2.21371 4.76068 3.41986C4.76068 4.62601 5.7327 5.59802 6.93885 5.59802Z" fill="#754F9B"/>
<path d="M14.5589 9.46472C17.1699 9.46472 19.2913 7.34332 19.2913 4.73236C19.2913 2.1214 17.1699 0 14.5589 0C11.948 0 9.82656 2.1214 9.82656 4.73236C9.81946 7.35041 11.9409 9.46472 14.5589 9.46472Z" fill="#00AAFF"/>
</svg>
